<?xml version="1.0" encoding="UTF-8" standalone="no"?>
<svg
   width="16"
   height="16"
   fill="currentColor"
   class="bi bi-book-fill"
   viewBox="0 0 16 16"
   version="1.1"
   id="svg4"
   sodipodi:docname="book-fill.svg"
   inkscape:version="1.1 (c4e8f9ed74, 2021-05-24)"
   xmlns:inkscape="http://www.inkscape.org/namespaces/inkscape"
   xmlns:sodipodi="http://sodipodi.sourceforge.net/DTD/sodipodi-0.dtd"
   xmlns="http://www.w3.org/2000/svg"
   xmlns:svg="http://www.w3.org/2000/svg">
  <defs
     id="defs8" />
  <sodipodi:namedview
     id="namedview6"
     pagecolor="#ffffff"
     bordercolor="#666666"
     borderopacity="1.0"
     inkscape:pageshadow="2"
     inkscape:pageopacity="0.0"
     inkscape:pagecheckerboard="0"
     showgrid="false"
     inkscape:zoom="34.125"
     inkscape:cx="8"
     inkscape:cy="8"
     inkscape:window-width="813"
     inkscape:window-height="693"
     inkscape:window-x="553"
     inkscape:window-y="38"
     inkscape:window-maximized="1"
     inkscape:current-layer="svg4" />
  <path
     d="M8 1.783C7.015.936 5.587.81 4.287.94c-1.514.153-3.042.672-3.994 1.105A.5.5 0 0 0 0 2.5v11a.5.5 0 0 0 .707.455c.882-.4 2.303-.881 3.68-1.02 1.409-.142 2.59.087 3.223.877a.5.5 0 0 0 .78 0c.633-.79 1.814-1.019 3.222-.877 1.378.139 2.8.62 3.681 1.02A.5.5 0 0 0 16 13.5v-11a.5.5 0 0 0-.293-.455c-.952-.433-2.48-.952-3.994-1.105C10.413.809 8.985.936 8 1.783z"
     id="path2" />
  <path
     style="fill:#ffffff;stroke-width:0.029304"
     d="M 0.34404466,13.950789 C 0.20627339,13.901627 0.16412096,13.86673 0.08094011,13.732969 L 0.01465201,13.626374 V 7.9978599 2.3693463 L 0.09527078,2.2475231 C 0.19082534,2.1031304 0.24777773,2.0722772 0.87912088,1.8228822 2.036187,1.3658147 3.2387083,1.063339 4.3441538,0.95130662 c 0.4591326,-0.0465312 1.4707113,-0.0225249 1.8389964,0.0436423 0.6466596,0.11618088 1.399479,0.44127238 1.747294,0.75453778 0.061991,0.055833 0.063312,0.055376 0.2558365,-0.088539 0.3925732,-0.2934542 0.963855,-0.5317686 1.5641814,-0.6525101 0.3996149,-0.0803731 1.3835399,-0.11002729 1.9031709,-0.057359 1.158408,0.11741283 2.526534,0.47380203 3.701678,0.96426613 0.48105,0.2007731 0.564249,0.2703982 0.61484,0.514529 0.02113,0.1019639 0.02839,1.890282 0.02303,5.6748359 l -0.0078,5.5259544 -0.08046,0.12158 c -0.08697,0.131415 -0.184925,0.195036 -0.347147,0.225469 -0.08551,0.01604 -0.183447,-0.01326 -0.570416,-0.170678 -1.553964,-0.632145 -3.179774,-0.973834 -4.364613,-0.917291 -1.0082237,0.04811 -1.6586005,0.295345 -2.1701196,0.824936 -0.3521492,0.364592 -0.5530336,0.364592 -0.9051828,0 -0.5115191,-0.529591 -1.1618959,-0.776822 -2.1701192,-0.824936 -1.1844862,-0.05653 -2.8090263,0.284499 -4.3592093,0.915088 -0.2539754,0.103313 -0.48474463,0.187263 -0.51282052,0.186556 -0.0280759,-7.06e-4 -0.10062263,-0.01898 -0.16121492,-0.0406 z"
     id="path65" />
</svg>
