<?xml version="1.0" encoding="UTF-8" standalone="no"?>
<svg
   width="16"
   height="16"
   fill="currentColor"
   class="bi bi-box-arrow-in-right"
   viewBox="0 0 16 16"
   version="1.1"
   id="svg6"
   sodipodi:docname="box-arrow-in-right.svg"
   inkscape:version="1.1 (c4e8f9ed74, 2021-05-24)"
   xmlns:inkscape="http://www.inkscape.org/namespaces/inkscape"
   xmlns:sodipodi="http://sodipodi.sourceforge.net/DTD/sodipodi-0.dtd"
   xmlns="http://www.w3.org/2000/svg"
   xmlns:svg="http://www.w3.org/2000/svg">
  <defs
     id="defs10" />
  <sodipodi:namedview
     id="namedview8"
     pagecolor="#ffffff"
     bordercolor="#666666"
     borderopacity="1.0"
     inkscape:pageshadow="2"
     inkscape:pageopacity="0.0"
     inkscape:pagecheckerboard="0"
     showgrid="false"
     inkscape:zoom="34.125"
     inkscape:cx="8"
     inkscape:cy="8"
     inkscape:window-width="813"
     inkscape:window-height="693"
     inkscape:window-x="553"
     inkscape:window-y="38"
     inkscape:window-maximized="1"
     inkscape:current-layer="svg6" />
  <path
     fill-rule="evenodd"
     d="M6 3.5a.5.5 0 0 1 .5-.5h8a.5.5 0 0 1 .5.5v9a.5.5 0 0 1-.5.5h-8a.5.5 0 0 1-.5-.5v-2a.5.5 0 0 0-1 0v2A1.5 1.5 0 0 0 6.5 14h8a1.5 1.5 0 0 0 1.5-1.5v-9A1.5 1.5 0 0 0 14.5 2h-8A1.5 1.5 0 0 0 5 3.5v2a.5.5 0 0 0 1 0v-2z"
     id="path2" />
  <path
     fill-rule="evenodd"
     d="M11.854 8.354a.5.5 0 0 0 0-.708l-3-3a.5.5 0 1 0-.708.708L10.293 7.5H1.5a.5.5 0 0 0 0 1h8.793l-2.147 2.146a.5.5 0 0 0 .708.708l3-3z"
     id="path4" />
  <path
     style="fill:#ffffff;stroke-width:0.029304"
     d="M 6.1951921,13.949191 C 5.639499,13.828282 5.1852751,13.372411 5.0532433,12.803101 5.016232,12.643512 5.0099272,12.412217 5.0170349,11.474768 l 0.00861,-1.135096 0.084734,-0.111047 c 0.109387,-0.143357 0.307565,-0.233852 0.4530652,-0.206885 0.1468028,0.02721 0.271578,0.109578 0.3413221,0.22532 0.055249,0.09169 0.059448,0.163602 0.07326,1.254772 0.014488,1.144576 0.015405,1.15872 0.082063,1.265922 0.037076,0.05963 0.116197,0.138748 0.1758242,0.175824 l 0.1084129,0.06741 4.0829217,0.0078 c 2.767101,0.0053 4.119515,-0.002 4.196469,-0.02275 0.133418,-0.03593 0.27669,-0.148786 0.337047,-0.265502 0.06477,-0.125257 0.06477,-9.3358725 0,-9.4611304 C 14.900403,3.1527186 14.757131,3.0398587 14.623713,3.003933 14.546759,2.9832113 13.194345,2.97588 10.427244,2.9811843 L 6.3443223,2.989011 6.2359094,3.0564222 C 6.1762822,3.0934983 6.0971613,3.1726192 6.0600852,3.2322464 5.9934272,3.339448 5.9925103,3.3535922 5.978022,4.4981685 5.9642097,5.589338 5.960011,5.6612519 5.9047619,5.7529398 5.8350178,5.8686825 5.7102426,5.9510517 5.5634398,5.9782599 5.4179396,6.005227 5.2197616,5.9147323 5.1103746,5.7713752 L 5.025641,5.6603279 5.0170349,4.5252318 C 5.0073526,3.2482122 5.0178676,3.1517884 5.2058114,2.7941308 5.3329743,2.5521393 5.5842772,2.3079488 5.8379239,2.1799084 6.190068,2.0021466 6.0211419,2.0083912 10.492787,2.0078348 c 2.793298,-3.475e-4 4.144979,0.00948 4.263736,0.031014 0.541611,0.098188 1.008015,0.5218715 1.175003,1.0673786 0.05128,0.1675065 0.05382,0.3990147 0.05382,4.8937729 0,4.4947577 -0.0025,4.7262657 -0.05382,4.8937727 -0.166988,0.545507 -0.633392,0.969191 -1.175003,1.067379 -0.276815,0.05018 -8.3274101,0.03894 -8.5613309,-0.01196 z"
     id="path86" />
  <path
     style="fill:#ffffff;stroke-width:0.029304"
     d="m 8.3076923,11.444903 c -0.082408,-0.03362 -0.2213864,-0.178392 -0.254793,-0.265416 -0.047421,-0.123531 -0.033107,-0.31479 0.031246,-0.417498 0.032849,-0.05243 0.5483018,-0.583234 1.1454511,-1.1795714 L 10.315322,8.4981685 5.8220422,8.4835165 1.3287622,8.4688645 1.2211268,8.3867637 C 1.0827173,8.2811892 1.025641,8.1682652 1.025641,8 c 0,-0.1682652 0.057076,-0.2811892 0.1954858,-0.3867637 L 1.3287622,7.5311355 5.8220422,7.5164835 10.315322,7.5018315 9.2295962,6.4175824 C 8.6324469,5.8212454 8.116994,5.2904383 8.0841451,5.2380111 8.0197919,5.1353027 8.0054781,4.944044 8.0528993,4.8205128 8.0882347,4.7284647 8.2276862,4.5873471 8.316926,4.5533317 8.420664,4.51379 8.6106728,4.5224869 8.7139704,4.5715048 c 0.1443578,0.068502 3.1716546,3.1128847 3.2261966,3.2444038 0.05706,0.1375985 0.05706,0.2305843 0,0.3681828 -0.05454,0.1315191 -3.0818388,3.1759016 -3.2261966,3.2444036 -0.099276,0.04711 -0.3101459,0.05563 -0.4062781,0.01641 z"
     id="path125" />
</svg>
