<?xml version="1.0" encoding="UTF-8" standalone="no"?>
<svg
   width="16"
   height="16"
   fill="currentColor"
   class="bi bi-download"
   viewBox="0 0 16 16"
   version="1.1"
   id="svg6"
   sodipodi:docname="download.svg"
   inkscape:version="1.1 (c4e8f9ed74, 2021-05-24)"
   xmlns:inkscape="http://www.inkscape.org/namespaces/inkscape"
   xmlns:sodipodi="http://sodipodi.sourceforge.net/DTD/sodipodi-0.dtd"
   xmlns="http://www.w3.org/2000/svg"
   xmlns:svg="http://www.w3.org/2000/svg">
  <defs
     id="defs10" />
  <sodipodi:namedview
     id="namedview8"
     pagecolor="#ffffff"
     bordercolor="#666666"
     borderopacity="1.0"
     inkscape:pageshadow="2"
     inkscape:pageopacity="0.0"
     inkscape:pagecheckerboard="0"
     showgrid="false"
     inkscape:zoom="34.125"
     inkscape:cx="7.985348"
     inkscape:cy="8"
     inkscape:window-width="812"
     inkscape:window-height="693"
     inkscape:window-x="554"
     inkscape:window-y="38"
     inkscape:window-maximized="1"
     inkscape:current-layer="svg6" />
  <path
     d="M.5 9.9a.5.5 0 0 1 .5.5v2.5a1 1 0 0 0 1 1h12a1 1 0 0 0 1-1v-2.5a.5.5 0 0 1 1 0v2.5a2 2 0 0 1-2 2H2a2 2 0 0 1-2-2v-2.5a.5.5 0 0 1 .5-.5z"
     id="path2" />
  <path
     d="M7.646 11.854a.5.5 0 0 0 .708 0l3-3a.5.5 0 0 0-.708-.708L8.5 10.293V1.5a.5.5 0 0 0-1 0v8.793L5.354 8.146a.5.5 0 1 0-.708.708l3 3z"
     id="path4" />
  <path
     style="fill:#ffffff;stroke-width:0.029304"
     d="M 1.5238095,14.825759 C 1.4351648,14.80256 1.2571429,14.731503 1.1282051,14.667855 0.71686438,14.464802 0.43568903,14.183665 0.23312265,13.772894 0.01423211,13.32902 0.01477604,13.334129 0.01471044,11.721612 c -6.458e-5,-1.587235 -0.006556,-1.529395 0.19022787,-1.694977 0.2544628,-0.2141167 0.66630233,-0.073126 0.75871344,0.25974 0.0214485,0.07726 0.0324135,0.57314 0.0325218,1.470767 1.5531e-4,1.294058 0.002837,1.361358 0.0603466,1.515067 0.079559,0.212641 0.2814189,0.433089 0.490656,0.535839 l 0.1671095,0.08206 H 8 14.285714 l 0.16711,-0.08206 c 0.209237,-0.10275 0.411096,-0.323198 0.490656,-0.535839 0.05751,-0.153709 0.06019,-0.221009 0.06035,-1.515067 1.17e-4,-0.897627 0.01107,-1.393509 0.03252,-1.470767 0.09241,-0.3328663 0.504251,-0.4738567 0.758714,-0.25974 0.196784,0.165582 0.190292,0.107742 0.190228,1.694977 -5.9e-5,1.612522 4.77e-4,1.607416 -0.218417,2.051282 -0.205833,0.417381 -0.505127,0.712571 -0.924382,0.911707 -0.424734,0.201737 0.105991,0.187396 -6.8559738,0.185265 -5.3847825,-0.0016 -6.324983,-0.0081 -6.4627077,-0.04411 z"
     id="path49" />
  <path
     style="fill:#ffffff;stroke-width:0.029304"
     d="M 7.8681319,11.963492 C 7.7663083,11.938313 7.5458966,11.730047 6.1896585,10.37751 5.154567,9.3452428 4.6089251,8.7803601 4.5706109,8.7013708 4.4950802,8.5456548 4.4976416,8.4335264 4.5803,8.2772167 4.6551025,8.1357632 4.8428062,8.014652 4.9872352,8.014652 c 0.1977042,0 0.2930178,0.080876 1.4083692,1.1950339 l 1.1062271,1.1050431 1.758e-4,-4.4101116 c 1.172e-4,-3.1108917 0.00964,-4.4442387 0.032324,-4.525953 0.067841,-0.2443556 0.3500818,-0.41158659 0.578929,-0.3430223 0.142521,0.0427 0.2543806,0.1298566 0.3195715,0.2489966 0.047246,0.086344 0.051694,0.3963754 0.065349,4.5543427 L 8.5128328,10.300673 9.5970819,9.2142857 C 10.193419,8.6167725 10.730256,8.1024179 10.790054,8.071275 c 0.225467,-0.1174239 0.507425,-0.025204 0.629658,0.2059417 0.07893,0.1492627 0.08473,0.254507 0.0223,0.4050432 -0.05419,0.1306787 -3.0830343,3.1773581 -3.2217681,3.2407421 -0.1356401,0.06197 -0.2240943,0.07214 -0.3520987,0.04049 z"
     id="path88" />
</svg>
