<?xml version="1.0" encoding="UTF-8" standalone="no"?>
<svg
   width="16"
   height="16"
   fill="currentColor"
   class="bi bi-pencil-square"
   viewBox="0 0 16 16"
   version="1.1"
   id="svg6"
   sodipodi:docname="pencil-square.svg"
   inkscape:version="1.1 (c4e8f9ed74, 2021-05-24)"
   xmlns:inkscape="http://www.inkscape.org/namespaces/inkscape"
   xmlns:sodipodi="http://sodipodi.sourceforge.net/DTD/sodipodi-0.dtd"
   xmlns="http://www.w3.org/2000/svg"
   xmlns:svg="http://www.w3.org/2000/svg">
  <defs
     id="defs10" />
  <sodipodi:namedview
     id="namedview8"
     pagecolor="#ffffff"
     bordercolor="#666666"
     borderopacity="1.0"
     inkscape:pageshadow="2"
     inkscape:pageopacity="0.0"
     inkscape:pagecheckerboard="0"
     showgrid="false"
     inkscape:zoom="34.125"
     inkscape:cx="8"
     inkscape:cy="8"
     inkscape:window-width="813"
     inkscape:window-height="693"
     inkscape:window-x="553"
     inkscape:window-y="38"
     inkscape:window-maximized="1"
     inkscape:current-layer="svg6" />
  <path
     d="M15.502 1.94a.5.5 0 0 1 0 .706L14.459 3.69l-2-2L13.502.646a.5.5 0 0 1 .707 0l1.293 1.293zm-1.75 2.456-2-2L4.939 9.21a.5.5 0 0 0-.121.196l-.805 2.414a.25.25 0 0 0 .316.316l2.414-.805a.5.5 0 0 0 .196-.12l6.813-6.814z"
     id="path2" />
  <path
     fill-rule="evenodd"
     d="M1 13.5A1.5 1.5 0 0 0 2.5 15h11a1.5 1.5 0 0 0 1.5-1.5v-6a.5.5 0 0 0-1 0v6a.5.5 0 0 1-.5.5h-11a.5.5 0 0 1-.5-.5v-11a.5.5 0 0 1 .5-.5H9a.5.5 0 0 0 0-1H2.5A1.5 1.5 0 0 0 1 2.5v11z"
     id="path4" />
  <path
     style="fill:#ffffff;stroke-width:0.029304"
     d="M 2.176195,14.944641 C 1.6558445,14.831591 1.2083775,14.398239 1.0682091,13.871607 1.03259,13.737781 1.0263917,12.860896 1.0267052,8 1.0269527,4.1623434 1.0370478,2.2424074 1.0574444,2.1538462 1.1439707,1.7781523 1.4553533,1.3799175 1.8089479,1.1927301 2.1598508,1.0069677 2.0507667,1.011993 5.7289377,1.0121414 c 3.1892249,1.287e-4 3.3460774,0.0026 3.4601788,0.054418 0.2180987,0.099055 0.3373403,0.3371385 0.2767083,0.5524884 -0.037269,0.1323707 -0.1045914,0.2166917 -0.2378896,0.2979557 -0.099387,0.06059 -0.1112331,0.0608 -3.4433427,0.060909 -2.4177938,7.92e-5 -3.3711938,0.00933 -3.4432233,0.033401 -0.054786,0.01831 -0.137052,0.067761 -0.1828132,0.1098901 -0.1782461,0.1640995 -0.165882,-0.2727372 -0.165882,5.8607817 0,3.9137517 0.00951,5.6510267 0.031256,5.7084147 0.044447,0.117309 0.1408282,0.213605 0.2764363,0.276192 0.1126603,0.052 0.3341859,0.0541 5.6996337,0.0541 5.365448,0 5.586973,-0.0021 5.699634,-0.0541 0.135608,-0.06259 0.231989,-0.158883 0.276436,-0.276192 0.02141,-0.05651 0.03131,-1.048813 0.03142,-3.150183 1.17e-4,-1.9834608 0.01067,-3.1055085 0.02988,-3.1746942 0.03764,-0.1355296 0.225688,-0.3082496 0.363808,-0.3341608 0.217455,-0.040795 0.431157,0.061054 0.530274,0.2527249 0.06351,0.1228115 0.06382,6.3489791 3.34e-4,6.5875201 -0.145755,0.547619 -0.618279,0.98557 -1.171605,1.085882 -0.120435,0.02183 -1.899345,0.03081 -5.7875462,0.02919 -4.6070673,-0.0019 -5.6464401,-0.0095 -5.7964449,-0.04204 z"
     id="path67" />
  <path
     style="fill:#ffffff;stroke-width:0.029304"
     d="M 4.1620579,12.10917 C 4.1222521,12.088953 4.069549,12.03654 4.0449401,11.992696 4.0019568,11.916116 4.017193,11.86195 4.4322384,10.615831 l 0.432042,-1.2971497 3.443314,-3.443173 3.4433136,-3.4431728 0.981747,0.9817463 0.981746,0.9817464 -3.450607,3.4471942 -3.4506072,3.4471946 -1.2600732,0.417816 c -0.6930403,0.229798 -1.2732601,0.422333 -1.2893773,0.427855 -0.016117,0.0055 -0.061872,-0.0065 -0.1016784,-0.02672 z"
     id="path106" />
  <path
     style="fill:#ffffff;stroke-width:0.029304"
     d="M 13.457309,2.6734285 12.482712,1.6985053 13.061869,1.1226615 c 0.83385,-0.82907989 0.756901,-0.83437088 1.717965,0.1181275 0.800659,0.7935236 0.839214,0.8411464 0.839214,1.0365965 0,0.079228 -0.01459,0.1728533 -0.03243,0.2080575 -0.03178,0.062729 -1.109916,1.1629086 -1.139609,1.1629086 -0.0083,0 -0.453674,-0.4387154 -0.989703,-0.9749231 z"
     id="path145" />
</svg>
