<?xml version="1.0" encoding="UTF-8" standalone="no"?>
<svg
   width="16"
   height="16"
   fill="currentColor"
   class="bi bi-plus-square"
   viewBox="0 0 16 16"
   version="1.1"
   id="svg6"
   sodipodi:docname="plus-square.svg"
   inkscape:version="1.1 (c4e8f9ed74, 2021-05-24)"
   xmlns:inkscape="http://www.inkscape.org/namespaces/inkscape"
   xmlns:sodipodi="http://sodipodi.sourceforge.net/DTD/sodipodi-0.dtd"
   xmlns="http://www.w3.org/2000/svg"
   xmlns:svg="http://www.w3.org/2000/svg">
  <defs
     id="defs10" />
  <sodipodi:namedview
     id="namedview8"
     pagecolor="#ffffff"
     bordercolor="#666666"
     borderopacity="1.0"
     inkscape:pageshadow="2"
     inkscape:pageopacity="0.0"
     inkscape:pagecheckerboard="0"
     showgrid="false"
     inkscape:zoom="34.125"
     inkscape:cx="7.985348"
     inkscape:cy="8"
     inkscape:window-width="804"
     inkscape:window-height="693"
     inkscape:window-x="562"
     inkscape:window-y="38"
     inkscape:window-maximized="1"
     inkscape:current-layer="svg6" />
  <path
     d="M14 1a1 1 0 0 1 1 1v12a1 1 0 0 1-1 1H2a1 1 0 0 1-1-1V2a1 1 0 0 1 1-1h12zM2 0a2 2 0 0 0-2 2v12a2 2 0 0 0 2 2h12a2 2 0 0 0 2-2V2a2 2 0 0 0-2-2H2z"
     id="path2" />
  <path
     d="M8 4a.5.5 0 0 1 .5.5v3h3a.5.5 0 0 1 0 1h-3v3a.5.5 0 0 1-1 0v-3h-3a.5.5 0 0 1 0-1h3v-3A.5.5 0 0 1 8 4z"
     id="path4" />
  <path
     style="fill:#ffffff;stroke-width:0.029304"
     d="M 7.9010344,11.9682 C 7.7858617,11.943842 7.6768217,11.868479 7.5915543,11.754305 7.5325081,11.675241 7.5309524,11.637188 7.523079,10.079191 L 7.5150224,8.4849776 5.9208095,8.476921 C 4.3555227,8.4690107 4.3250957,8.4677521 4.2438843,8.4075619 4.0984168,8.299748 4.029304,8.1684791 4.029304,8 c 0,-0.1684791 0.069113,-0.299748 0.2145803,-0.4075619 0.081211,-0.06019 0.1116384,-0.061449 1.6769252,-0.069359 l 1.5942129,-0.00806 0.00806,-1.5942129 c 0.00787,-1.5579973 0.00943,-1.5960508 0.068475,-1.6751145 0.2238078,-0.2996818 0.5930836,-0.2996818 0.8168914,0 0.059046,0.079064 0.060602,0.1171172 0.068475,1.6751145 l 0.00806,1.5942129 1.5942132,0.00806 c 1.565286,0.00791 1.595713,0.00917 1.676925,0.069359 0.29098,0.2156612 0.29098,0.5994626 0,0.8151238 -0.08121,0.06019 -0.111639,0.061449 -1.676925,0.069359 l -1.5942132,0.00806 -0.00806,1.5942131 c -0.00787,1.557997 -0.00943,1.59605 -0.068475,1.675114 C 8.2774714,11.929682 8.090858,12.008347 7.9010344,11.9682 Z"
     id="path49" />
  <path
     style="fill:#ffffff;stroke-width:0.029304"
     d="M 1.6117216,15.942118 C 0.81118848,15.764677 0.22258037,15.177615 0.06102982,14.395498 0.0195864,14.194858 0.01465201,13.514406 0.01465201,8 0.01465201,1.1187727 3.553289e-4,1.5968029 0.21973195,1.1428571 0.42151402,0.72531895 0.7525716,0.39874084 1.1721612,0.20331507 1.6030139,0.00264344 1.1684157,0.01465201 8,0.01465201 c 6.881227,0 6.403197,-0.0142966805 6.857143,0.20507994 0.515138,0.2489489 0.866165,0.66273182 1.044775,1.23155665 l 0.06878,0.2190411 v 6.3443223 6.344322 l -0.07984,0.234433 c -0.108914,0.319814 -0.264416,0.571925 -0.494972,0.802481 -0.230556,0.230556 -0.482667,0.386058 -0.802481,0.494972 L 14.358972,15.9707 8.0732581,15.9759 C 2.9361967,15.9801 1.7554136,15.974 1.6117196,15.94213 Z M 14.406447,14.926442 c 0.23166,-0.108623 0.390524,-0.263599 0.501694,-0.489419 l 0.09552,-0.194033 V 8.0006163 1.7582418 l -0.07722,-0.164689 C 14.817819,1.3618926 14.662843,1.2030296 14.437023,1.0918589 L 14.24299,0.996337 H 8 1.7570094 L 1.5629768,1.0918589 C 1.3371572,1.2030296 1.182181,1.3618926 1.0735579,1.5935528 L 0.996337,1.7582418 V 8 14.241758 l 0.0762231,0.16251 c 0.1383815,0.295032 0.3688648,0.49285 0.6689593,0.57415 0.1047956,0.02839 1.4792929,0.03509 6.3170887,0.03077 l 6.1831499,-0.0055 z"
     id="path88" />
</svg>
