<?xml version="1.0" encoding="UTF-8" standalone="no"?>
<svg
   width="16"
   height="16"
   fill="currentColor"
   class="bi bi-trash"
   viewBox="0 0 16 16"
   version="1.1"
   id="svg6"
   sodipodi:docname="trash.svg"
   inkscape:version="1.1 (c4e8f9ed74, 2021-05-24)"
   xmlns:inkscape="http://www.inkscape.org/namespaces/inkscape"
   xmlns:sodipodi="http://sodipodi.sourceforge.net/DTD/sodipodi-0.dtd"
   xmlns="http://www.w3.org/2000/svg"
   xmlns:svg="http://www.w3.org/2000/svg">
  <defs
     id="defs10" />
  <sodipodi:namedview
     id="namedview8"
     pagecolor="#ffffff"
     bordercolor="#666666"
     borderopacity="1.0"
     inkscape:pageshadow="2"
     inkscape:pageopacity="0.0"
     inkscape:pagecheckerboard="0"
     showgrid="false"
     inkscape:zoom="34.125"
     inkscape:cx="7.985348"
     inkscape:cy="8"
     inkscape:window-width="804"
     inkscape:window-height="693"
     inkscape:window-x="562"
     inkscape:window-y="38"
     inkscape:window-maximized="1"
     inkscape:current-layer="svg6" />
  <path
     d="M5.5 5.5A.5.5 0 0 1 6 6v6a.5.5 0 0 1-1 0V6a.5.5 0 0 1 .5-.5zm2.5 0a.5.5 0 0 1 .5.5v6a.5.5 0 0 1-1 0V6a.5.5 0 0 1 .5-.5zm3 .5a.5.5 0 0 0-1 0v6a.5.5 0 0 0 1 0V6z"
     id="path2" />
  <path
     fill-rule="evenodd"
     d="M14.5 3a1 1 0 0 1-1 1H13v9a2 2 0 0 1-2 2H5a2 2 0 0 1-2-2V4h-.5a1 1 0 0 1-1-1V2a1 1 0 0 1 1-1H6a1 1 0 0 1 1-1h2a1 1 0 0 1 1 1h3.5a1 1 0 0 1 1 1v1zM4.118 4 4 4.059V13a1 1 0 0 0 1 1h6a1 1 0 0 0 1-1V4.059L11.882 4H4.118zM2.5 3V2h11v1h-11z"
     id="path4" />
  <path
     style="fill:#ffffff;stroke-width:0.029304"
     d="M 4.6007326,14.942016 C 4.4879121,14.918797 4.2706162,14.838683 4.117853,14.763985 3.7379011,14.578197 3.4203944,14.266139 3.2432561,13.904399 2.99927,13.406146 3.020032,13.874549 3.0106402,8.6564533 L 3.0022752,4.0088777 2.6570524,3.99152 C 2.4121217,3.979205 2.2638674,3.9562174 2.146735,3.9123927 1.9280113,3.8305577 1.7119138,3.6254646 1.6060769,3.3992674 L 1.5238095,3.2234432 V 2.5201465 c 0,-0.8559123 0.016703,-0.9243145 0.2944588,-1.2058749 C 1.9692348,1.1612372 2.0261275,1.1247528 2.1952594,1.0725133 2.3884868,1.0128314 2.4486453,1.010989 4.2041332,1.010989 H 6.0138145 L 6.0307531,0.86796847 C 6.068218,0.55163478 6.2705588,0.27419267 6.5720425,0.12577285 L 6.7679985,0.02930403 H 8 9.2320015 l 0.195956,0.09646882 C 9.7294412,0.27419267 9.931782,0.55163478 9.9692469,0.86796847 L 9.9861855,1.010989 h 1.8096815 c 1.725355,0 1.8185,0.00272 1.998949,0.058459 0.209861,0.064819 0.418409,0.2259445 0.538335,0.4159188 0.136879,0.2168313 0.163498,0.4090857 0.152807,1.1036281 -0.0096,0.6243711 -0.01107,0.6372411 -0.09204,0.8102726 -0.105837,0.2261972 -0.321934,0.4312903 -0.540658,0.5131253 -0.117132,0.043825 -0.265387,0.066812 -0.510317,0.079127 l -0.345223,0.017358 -0.0084,4.6475756 c -0.0094,5.2180956 0.01137,4.7496926 -0.232616,5.2479456 -0.177226,0.36192 -0.494714,0.673895 -0.874597,0.859413 -0.48142,0.235103 -0.313428,0.225512 -3.9028896,0.22281 -2.6413046,-0.002 -3.207791,-0.0095 -3.3785248,-0.04461 z m 6.6531834,-0.964958 c 0.191574,-0.04927 0.436513,-0.201033 0.531229,-0.329143 0.03332,-0.04507 0.092,-0.140884 0.130395,-0.212917 l 0.06981,-0.130969 0.0077,-4.6280856 c 0.0061,-3.7010816 2.64e-4,-4.6327891 -0.0293,-4.651566 -0.04835,-0.030694 -7.8791027,-0.030694 -7.9274559,0 -0.029579,0.018777 -0.035449,0.9504844 -0.029304,4.651566 l 0.00768,4.6280856 0.069808,0.130969 c 0.1091528,0.204784 0.1795184,0.287019 0.3389746,0.396153 0.2834702,0.194011 0.1468539,0.186768 3.5630822,0.188899 2.6874341,0.0017 3.1156341,-0.004 3.2673991,-0.04299 z M 13.52381,2.4908425 V 1.978022 H 8 2.4761905 V 2.4908425 3.003663 H 8 13.52381 Z"
     id="path49" />
  <path
     style="fill:#ffffff;stroke-width:0.029304"
     d="M 5.3758605,12.459596 C 5.2346473,12.412493 5.1623595,12.35588 5.0883566,12.234432 L 5.0258601,12.131868 5.0257506,8.9933445 5.025641,5.854821 5.0922724,5.7559467 C 5.1289197,5.7015658 5.2033973,5.6270882 5.2577782,5.5904409 5.4569562,5.4562148 5.7749048,5.5341032 5.9091349,5.7500048 l 0.068887,0.1108011 0.00877,3.076923 c 0.00595,2.0854731 -0.00113,3.1110531 -0.021966,3.1828451 -0.07775,0.267931 -0.3434972,0.420901 -0.5889677,0.339022 z"
     id="path88" />
  <path
     style="fill:#ffffff;stroke-width:0.029304"
     d="M 7.8575022,12.455583 C 7.7089144,12.402168 7.5810798,12.276736 7.5437573,12.147737 7.5238498,12.07893 7.5166636,10.996396 7.5224333,8.9354412 l 0.0087,-3.1085152 0.084449,-0.1107115 c 0.1968207,-0.2580294 0.5720102,-0.2580294 0.768831,-1e-7 l 0.084449,0.1107115 0.00846,3.093863 c 0.00465,1.7016251 8.293e-4,3.1363321 -0.00849,3.1882381 -0.045776,0.254905 -0.3641758,0.435403 -0.6113262,0.346556 z"
     id="path127" />
  <path
     style="fill:#ffffff;stroke-width:0.029304"
     d="m 10.34887,12.455764 c -0.148785,-0.0535 -0.242048,-0.14488 -0.297684,-0.291681 -0.04031,-0.10637 -0.04459,-0.474167 -0.03737,-3.211702 l 0.0082,-3.0915751 0.06889,-0.1108011 c 0.13423,-0.2159016 0.452179,-0.29379 0.651357,-0.1595639 0.05438,0.036647 0.128858,0.1111249 0.165506,0.1655058 l 0.06663,0.098874 -1.1e-4,3.1385235 -1.09e-4,3.1385238 -0.06221,0.102046 c -0.128726,0.211162 -0.35015,0.298404 -0.563062,0.22185 z"
     id="path166" />
</svg>
