<?xml version="1.0" encoding="UTF-8" standalone="no"?>
<svg
   width="16"
   height="16"
   fill="currentColor"
   class="bi bi-book-half"
   viewBox="0 0 16 16"
   version="1.1"
   id="svg4"
   sodipodi:docname="book-half.svg"
   inkscape:version="1.1 (c4e8f9ed74, 2021-05-24)"
   xmlns:inkscape="http://www.inkscape.org/namespaces/inkscape"
   xmlns:sodipodi="http://sodipodi.sourceforge.net/DTD/sodipodi-0.dtd"
   xmlns="http://www.w3.org/2000/svg"
   xmlns:svg="http://www.w3.org/2000/svg">
  <defs
     id="defs8" />
  <sodipodi:namedview
     id="namedview6"
     pagecolor="#ffffff"
     bordercolor="#666666"
     borderopacity="1.0"
     inkscape:pageshadow="2"
     inkscape:pageopacity="0.0"
     inkscape:pagecheckerboard="0"
     showgrid="false"
     inkscape:zoom="34.125"
     inkscape:cx="8"
     inkscape:cy="7.970696"
     inkscape:window-width="813"
     inkscape:window-height="693"
     inkscape:window-x="553"
     inkscape:window-y="38"
     inkscape:window-maximized="1"
     inkscape:current-layer="svg4" />
  <path
     d="M8.5 2.687c.654-.689 1.782-.886 3.112-.752 1.234.124 2.503.523 3.388.893v9.923c-.918-.35-2.107-.692-3.287-.81-1.094-.111-2.278-.039-3.213.492V2.687zM8 1.783C7.015.936 5.587.81 4.287.94c-1.514.153-3.042.672-3.994 1.105A.5.5 0 0 0 0 2.5v11a.5.5 0 0 0 .707.455c.882-.4 2.303-.881 3.68-1.02 1.409-.142 2.59.087 3.223.877a.5.5 0 0 0 .78 0c.633-.79 1.814-1.019 3.222-.877 1.378.139 2.8.62 3.681 1.02A.5.5 0 0 0 16 13.5v-11a.5.5 0 0 0-.293-.455c-.952-.433-2.48-.952-3.994-1.105C10.413.809 8.985.936 8 1.783z"
     id="path2" />
  <path
     style="fill:#1a1a1a;stroke-width:0.029304"
     d="M 0.34404466,13.950789 C 0.20627339,13.901627 0.16412096,13.86673 0.08094011,13.732969 L 0.01465201,13.626374 V 7.9978599 2.3693463 L 0.09527078,2.2475231 C 0.19082534,2.1031304 0.24777773,2.0722772 0.87912088,1.8228822 2.036187,1.3658147 3.2387083,1.063339 4.3441538,0.95130662 c 0.4591326,-0.0465312 1.4707113,-0.0225249 1.8389964,0.0436423 0.6466596,0.11618088 1.399479,0.44127238 1.747294,0.75453778 0.061991,0.055833 0.063312,0.055376 0.2558365,-0.088539 0.3925732,-0.2934542 0.963855,-0.5317686 1.5641814,-0.6525101 0.3996149,-0.0803731 1.3835399,-0.11002729 1.9031709,-0.057359 1.158408,0.11741283 2.526534,0.47380203 3.701678,0.96426613 0.48105,0.2007731 0.564249,0.2703982 0.61484,0.514529 0.02113,0.1019639 0.02839,1.890282 0.02303,5.6748359 l -0.0078,5.5259544 -0.08046,0.12158 c -0.08697,0.131415 -0.184925,0.195036 -0.347147,0.225469 -0.08551,0.01604 -0.183447,-0.01326 -0.570416,-0.170678 -1.553964,-0.632145 -3.179774,-0.973834 -4.364613,-0.917291 -1.0082237,0.04811 -1.6586005,0.295345 -2.1701196,0.824936 -0.3521492,0.364592 -0.5530336,0.364592 -0.9051828,0 -0.5115191,-0.529591 -1.1618959,-0.776822 -2.1701192,-0.824936 -1.1844862,-0.05653 -2.8090263,0.284499 -4.3592093,0.915088 -0.2539754,0.103313 -0.48474463,0.187263 -0.51282052,0.186556 -0.0280759,-7.06e-4 -0.10062263,-0.01898 -0.16121492,-0.0406 z M 15.003663,7.7842866 V 2.8066686 L 14.835165,2.7413357 C 13.869139,2.3667721 12.997742,2.1274635 12.043956,1.9747965 11.571634,1.8991946 10.644093,1.8693914 10.237359,1.9167478 9.6155525,1.9891453 9.0349609,2.2074282 8.6812437,2.5017945 L 8.4981685,2.6541513 V 7.546856 c 0,2.690988 0.00697,4.892704 0.015488,4.892704 0.00852,0 0.097529,-0.04147 0.1978022,-0.09215 0.9025617,-0.456174 2.2712093,-0.553882 3.8306663,-0.273472 0.482793,0.08681 1.366068,0.320462 1.888826,0.499645 0.290815,0.09968 0.538646,0.182831 0.550734,0.184777 0.01209,0.0019 0.02198,-2.236388 0.02198,-4.9740784 z"
     id="path84" />
  <path
     style="fill:#ffffff;stroke-width:0.029304"
     d="M 0.29378731,13.912042 C 0.23778793,13.883862 0.15533701,13.808059 0.11056307,13.74359 L 0.0291559,13.626374 0.02893465,8.0026333 C 0.02873206,2.8599524 0.03278993,2.3724009 0.07637231,2.3029996 0.1349685,2.2096899 0.3001144,2.0547518 0.3550696,2.0415288 0.37736375,2.0361644 0.60659341,1.9487018 0.86446886,1.8471674 1.1223443,1.745633 1.4454212,1.6260812 1.5824176,1.5814967 1.7194139,1.5369122 1.8359248,1.4891278 1.8413307,1.4753092 c 0.00541,-0.013819 0.019795,-0.018966 0.031976,-0.011437 0.012181,0.00753 0.1594061,-0.026225 0.3271675,-0.075006 C 2.6964306,1.2446522 3.34962,1.1037734 3.8974363,1.0228684 4.3838108,0.9510375 4.4525707,0.9479896 5.2307696,0.9637673 c 0.9194072,0.0186406 0.8971241,0.0165844 1.2600733,0.1162721 0.5130752,0.1409213 1.0215853,0.3692923 1.3210459,0.5932793 0.1045069,0.078168 0.1835844,0.1175328 0.2132424,0.106152 0.025926,-0.00995 0.1264821,-0.072805 0.2234579,-0.1396798 0.096976,-0.066875 0.2323637,-0.1524273 0.3008618,-0.190116 0.068498,-0.037689 0.1245422,-0.080062 0.1245422,-0.094162 0,-0.014101 0.012735,-0.017767 0.028299,-0.00815 0.015564,0.00962 0.078202,-0.00783 0.1391941,-0.038775 0.1415704,-0.071828 0.6033275,-0.219277 0.887452,-0.2833817 0.3426568,-0.0773107 1.6916298,-0.0953974 2.1891838,-0.029352 0.835165,0.11085969 1.702623,0.31926589 2.57272,0.61809399 0.306229,0.1051712 0.576557,0.1938484 0.600733,0.1970603 0.02418,0.00321 0.05055,0.013996 0.05861,0.023965 0.0081,0.00997 0.110093,0.05807 0.226742,0.1068922 0.355905,0.1489594 0.47583,0.2321949 0.538425,0.3736989 0.05442,0.1230316 0.05594,0.2786402 0.05572,5.7186405 l -2.34e-4,5.5921679 -0.08141,0.117216 c -0.105393,0.151757 -0.249004,0.226857 -0.402255,0.210356 -0.06447,-0.0069 -0.341393,-0.09872 -0.615385,-0.203961 -0.468828,-0.180071 -0.990033,-0.362623 -1.095645,-0.38375 -0.02596,-0.0052 -0.06698,-0.01733 -0.09116,-0.02696 -0.05174,-0.02061 -0.342793,-0.10457 -0.374058,-0.107899 -0.01185,-0.0013 -0.0677,-0.01448 -0.124111,-0.02937 -0.401632,-0.106037 -1.067079,-0.231489 -1.472455,-0.277591 -0.515589,-0.05864 -1.443511,-0.04465 -1.7656406,0.02661 -0.1128205,0.02496 -0.2380952,0.05234 -0.2783882,0.06085 -0.040293,0.0085 -0.09304,0.02366 -0.1172161,0.03368 -0.024176,0.01001 -0.07033,0.02317 -0.1025641,0.02924 -0.078558,0.01479 -0.5128206,0.219182 -0.5128206,0.241363 0,0.0096 -0.038823,0.03471 -0.086274,0.05572 -0.047451,0.021 -0.1760219,0.12417 -0.2857142,0.229258 -0.3642453,0.348957 -0.5388563,0.423114 -0.7451206,0.31645 C 7.7719138,13.892388 7.6202198,13.767909 7.4835229,13.640954 7.3468258,13.514 7.1961225,13.392927 7.1486268,13.371903 c -0.047496,-0.02102 -0.086356,-0.04611 -0.086356,-0.05575 0,-0.02338 -0.4382858,-0.227892 -0.5128206,-0.239287 -0.032234,-0.0049 -0.07261,-0.01771 -0.089724,-0.02841 -0.017114,-0.0107 -0.1687619,-0.04831 -0.3369964,-0.08358 -0.4230212,-0.08868 -1.2531425,-0.106869 -1.8386871,-0.04028 -0.3521093,0.04004 -1.0565943,0.168546 -1.2803804,0.233547 -0.032234,0.0094 -0.091575,0.02345 -0.1318681,0.03131 C 2.517029,13.258613 1.7581017,13.503488 1.0663895,13.77198 0.79519051,13.877247 0.53331868,13.963354 0.48445208,13.96333 0.43558548,13.963304 0.349786,13.94023 0.29378661,13.91205 Z M 14.996421,7.7746523 14.989011,2.7873996 14.813187,2.7179158 c -0.247574,-0.097838 -1.1866,-0.4115992 -1.274725,-0.4259295 -0.04029,-0.00655 -0.09304,-0.020022 -0.117217,-0.029933 -0.05036,-0.020646 -0.469338,-0.1251481 -0.600732,-0.1498364 -0.04835,-0.00909 -0.216639,-0.042875 -0.373971,-0.075089 -0.537868,-0.110129 -0.819304,-0.1325537 -1.648007,-0.1313128 -0.63567,9.518e-4 -0.730066,0.00763 -0.9816852,0.069454 -0.1531135,0.03762 -0.2915751,0.077991 -0.3076923,0.089713 C 9.4930403,2.0767041 9.407326,2.1090938 9.3186813,2.136959 9.1148316,2.2010387 8.8824149,2.3301959 8.6666667,2.4992927 L 8.4981685,2.6313563 v 4.9041022 c 0,3.3405125 0.00961,4.9041015 0.03014,4.9041015 0.016577,0 0.1055877,-0.03791 0.1978022,-0.08425 0.234819,-0.117999 0.5373925,-0.222596 0.812351,-0.280824 0.1289378,-0.02731 0.2542125,-0.05649 0.2783883,-0.06486 0.211658,-0.07326 1.742967,-0.0716 2.241758,0.0024 0.193407,0.02871 0.391209,0.0571 0.43956,0.0631 0.229619,0.0285 1.245562,0.292639 1.785765,0.464284 0.176311,0.05602 0.330129,0.09594 0.34182,0.08872 0.01169,-0.0072 0.02568,-0.0018 0.03109,0.01195 0.01,0.02548 0.243107,0.115248 0.310279,0.119481 0.02931,0.0018 0.03522,-1.003649 0.0293,-4.9849394 z"
     id="path62" />
  <path
     style="fill:#1a1a1a;stroke-width:0.029304"
     d="M 0.27461011,13.876272 C 0.22418047,13.842895 0.14618913,13.762585 0.10129603,13.697804 L 0.0196722,13.580021 0.03994562,7.9942069 C 0.0623685,1.8161651 0.0455309,2.2924651 0.24693757,2.1388447 0.33847083,2.0690289 0.67719511,1.9298386 1.4358974,1.6502711 2.0895639,1.4094074 3.0172607,1.1800529 3.9071853,1.0392944 4.2794371,0.98041581 4.3883209,0.97631506 5.2405187,0.98907888 l 0.9279795,0.0138988 0.3223443,0.093734 C 6.9417509,1.22783 7.390514,1.4234678 7.7094098,1.6279446 c 0.1494679,0.095839 0.2830573,0.1742532 0.2968651,0.1742532 0.013808,0 0.1632559,-0.089011 0.3321072,-0.1978022 C 8.7318828,1.3508622 8.6746186,1.3804929 9.0003147,1.2618862 9.6618426,1.0209817 9.7663244,1.0045306 10.734026,0.98890614 c 0.934004,-0.0150804 1.151529,3.0142e-4 1.822751,0.12889236 0.586282,0.1123186 1.141544,0.2586984 1.831501,0.4828258 1.076061,0.3495503 1.459164,0.5463945 1.522027,0.7820391 0.01811,0.067867 0.0365,2.1743532 0.04937,5.6528768 l 0.02051,5.5446978 -0.08533,0.123172 c -0.103105,0.148834 -0.228697,0.230399 -0.354992,0.230546 -0.05161,5.9e-5 -0.262602,-0.06072 -0.468865,-0.135072 -1.352101,-0.487382 -1.976576,-0.665032 -2.880518,-0.819443 -0.539426,-0.09215 -1.537494,-0.129405 -2.001255,-0.07471 -0.6950941,0.08198 -1.18406,0.289003 -1.653255,0.699981 C 8.0220659,14.054849 7.9799112,14.052691 7.3985374,13.546476 7.2451285,13.4129 7.0765199,13.302775 6.8754561,13.204831 6.3270708,12.937697 5.8601793,12.863376 4.8794884,12.887105 3.7453603,12.914547 2.6495393,13.159276 1.1714632,13.715214 0.58261588,13.936694 0.41215396,13.967305 0.27461011,13.876272 Z M 14.996421,7.7603786 l 0.0074,-4.986874 -0.168582,-0.064209 C 13.795915,2.3134395 12.559991,1.9960594 11.763789,1.9205573 11.304704,1.8770234 10.231219,1.8835489 9.96337,1.9315018 9.6961075,1.9793497 9.2444214,2.1309075 9.025641,2.2461454 8.9369963,2.2928372 8.7820513,2.3922648 8.6813187,2.4670958 L 8.4981685,2.603152 v 4.9182042 c 0,3.8551648 0.00774,4.9182038 0.035813,4.9182038 0.019697,0 0.1756774,-0.05904 0.3466228,-0.131191 0.1709456,-0.07216 0.4812035,-0.174354 0.6894622,-0.227107 l 0.3786517,-0.09591 0.9523808,0.002 c 1.069826,0.0022 1.390098,0.03643 2.163085,0.231095 0.533403,0.134327 1.575066,0.437371 1.705047,0.496037 0.05641,0.02546 0.128937,0.04326 0.161172,0.03955 0.05832,-0.0067 0.05864,-0.03129 0.06602,-4.9936212 z"
     id="path63" />
</svg>
